<svg xmlns="http://www.w3.org/2000/svg" xmlns:xlink="http://www.w3.org/1999/xlink" viewBox="0 0 786.1 300"><defs><style>.cls-1{fill:none;}.cls-2{clip-path:url(#clip-path);}.cls-3{fill:#36479f;}.cls-4{fill:#fff;}</style><clipPath id="clip-path" transform="translate(44.55 0)"><rect class="cls-1" width="772" height="300"/></clipPath></defs><g id="Layer_2" data-name="Layer 2"><g id="Layer_1-2" data-name="Layer 1"><g class="cls-2"><rect class="cls-3" x="84.55" y="39" width="220" height="159" rx="28.13"/><path class="cls-4" d="M186.62,125A25.41,25.41,0,0,1,212,150.38v77.24A25.41,25.41,0,0,1,186.62,253H.83a25.41,25.41,0,0,1-25.38-25.38V150.38A25.41,25.41,0,0,1,.83,125H186.62m0-20H.83a45.38,45.38,0,0,0-45.38,45.38v77.24A45.38,45.38,0,0,0,.83,273H186.62A45.38,45.38,0,0,0,232,227.62V150.38A45.38,45.38,0,0,0,186.62,105Z" transform="translate(44.55 0)"/><path class="cls-3" d="M335,84.58a26.63,26.63,0,0,1-10.52-11,35.08,35.08,0,0,1-3.72-16.49V32.93a35.08,35.08,0,0,1,3.72-16.49A26.63,26.63,0,0,1,335,5.42a33.55,33.55,0,0,1,31.4,0,26.63,26.63,0,0,1,10.52,11,35.08,35.08,0,0,1,3.72,16.49V57.07A35.08,35.08,0,0,1,377,73.56a26.63,26.63,0,0,1-10.52,11,33.55,33.55,0,0,1-31.4,0Zm25-10.25a16.09,16.09,0,0,0,6.21-6.74,22.26,22.26,0,0,0,2.2-10.11v-25a22.26,22.26,0,0,0-2.2-10.11A16.09,16.09,0,0,0,360,15.67a19.39,19.39,0,0,0-18.58,0,16.09,16.09,0,0,0-6.21,6.74A22.26,22.26,0,0,0,333,32.52v25a22.26,22.26,0,0,0,2.19,10.11,16.09,16.09,0,0,0,6.21,6.74,19.39,19.39,0,0,0,18.58,0Z" transform="translate(44.55 0)"/><path class="cls-3" d="M398.84,26.78h12V87.6h-12Zm36.91,24c0-4.29-1.11-7.62-3.34-10s-5.35-3.51-9.37-3.51-6.93,1-9.06,3.1-3.19,5-3.19,8.73l-1.23-11.72a21.61,21.61,0,0,1,7.35-8.49,17.85,17.85,0,0,1,10-3q9.9,0,15.32,6.47t5.42,18.31V87.6H435.75Z" transform="translate(44.55 0)"/><path class="cls-3" d="M477.82,71.89a5.31,5.31,0,0,0,1,3.43,3.29,3.29,0,0,0,2.72,1.2h5.63V87.89h-7q-6.81,0-10.52-4.22t-3.72-11.89V2.4h11.95Z" transform="translate(44.55 0)"/><path class="cls-3" d="M500.61,2.4h12v12h-12Zm0,24.38h12V87.6h-12Z" transform="translate(44.55 0)"/><path class="cls-3" d="M530.73,26.78h11.95V87.6H530.73Zm36.91,24c0-4.29-1.11-7.62-3.34-10s-5.35-3.51-9.37-3.51-6.92,1-9,3.1-3.2,5-3.2,8.73l-1.23-11.72a21.71,21.71,0,0,1,7.36-8.49,17.8,17.8,0,0,1,10.05-3q9.9,0,15.32,6.47t5.42,18.31V87.6h-12Z" transform="translate(44.55 0)"/><path class="cls-3" d="M608.25,85.31A21.17,21.17,0,0,1,599.14,76,32.19,32.19,0,0,1,596,61.23V54.37A35.89,35.89,0,0,1,599,39a21.55,21.55,0,0,1,8.76-9.72,27,27,0,0,1,13.83-3.34,22,22,0,0,1,13,3.81,23.73,23.73,0,0,1,8.23,11A47.26,47.26,0,0,1,645.69,58v4h-41V52.38h29.64q-.52-7.44-3.83-11.57a10.81,10.81,0,0,0-8.88-4.13q-6.79,0-10.52,4.45t-3.72,12.6v7.73q0,7.56,4,11.61t11.3,4a18.78,18.78,0,0,0,7.21-1.47,20.73,20.73,0,0,0,6.39-4.1l7.85,7.85A32.94,32.94,0,0,1,634,86.1a28.75,28.75,0,0,1-11.31,2.38A30.42,30.42,0,0,1,608.25,85.31Z" transform="translate(44.55 0)"/><path class="cls-3" d="M401,192.3a44.11,44.11,0,0,1-10.29-3.51,43.52,43.52,0,0,1-8.93-5.86l7.44-9.14a33.7,33.7,0,0,0,10.72,6.33,37.47,37.47,0,0,0,12.72,2.11q9.25,0,14.35-3.43a11,11,0,0,0,5.1-9.7V169a10.22,10.22,0,0,0-2.32-7.06,13.76,13.76,0,0,0-6-3.86,65.9,65.9,0,0,0-9.47-2.32,1.12,1.12,0,0,0-.38-.06,1.21,1.21,0,0,1-.38-.06l-.88-.17a91.66,91.66,0,0,1-13.91-3.31,19.59,19.59,0,0,1-9.17-6.74q-3.81-4.89-3.81-13.92v-.06a24.73,24.73,0,0,1,3.54-13.5,22.33,22.33,0,0,1,10.35-8.53A44.72,44.72,0,0,1,425,107.52a44.29,44.29,0,0,1,8.73,3,50.82,50.82,0,0,1,8.47,5l-6.8,9.49a39.8,39.8,0,0,0-9.7-5.36,27.8,27.8,0,0,0-9.7-1.79q-8.73,0-13.56,3.49a11.46,11.46,0,0,0-4.83,9.87v.06a9.42,9.42,0,0,0,2.49,6.92,15.06,15.06,0,0,0,6.21,3.72,93.62,93.62,0,0,0,10.34,2.49,2.41,2.41,0,0,0,.44.08l.44.09.64.12.65.12a70.2,70.2,0,0,1,12.92,3.75,20.2,20.2,0,0,1,8.67,7q3.48,4.83,3.48,13.21v.12a23.49,23.49,0,0,1-3.69,13.33,23,23,0,0,1-10.69,8.44,44.19,44.19,0,0,1-16.9,2.9A55.27,55.27,0,0,1,401,192.3Z" transform="translate(44.55 0)"/><path class="cls-3" d="M455,131.78h27.42v10.78H455Zm9.69,57q-3.42-4.08-3.42-12v-62.7h11.95v62.81a5.7,5.7,0,0,0,.88,3.43,3,3,0,0,0,2.58,1.2h5.74v11.37h-6.91Q468.15,192.89,464.72,188.82Z" transform="translate(44.55 0)"/><path class="cls-3" d="M510.81,168.75q0,6.39,3.25,9.87t9.17,3.49q5.87,0,9.08-3.11t3.23-8.84l.82,12.71a17.6,17.6,0,0,1-6.1,7.56,17.25,17.25,0,0,1-10.37,3q-10.08,0-15.56-6.48t-5.47-18.25v-37h11.95Zm24.73-37h11.89V192.6H535.54Z" transform="translate(44.55 0)"/><path class="cls-3" d="M573.47,190.75a18.28,18.28,0,0,1-7.17-8.46,33,33,0,0,1-2.46-13.36V155.51a33.79,33.79,0,0,1,2.4-13.42,18.21,18.21,0,0,1,7-8.47,20.33,20.33,0,0,1,11-2.9,18.18,18.18,0,0,1,9.87,2.82,20.61,20.61,0,0,1,7.23,7.91l-1.23,12.42a14.35,14.35,0,0,0-1.4-6.62,9.58,9.58,0,0,0-4.07-4.19,13.49,13.49,0,0,0-6.48-1.44q-5.93,0-9.17,3.69t-3.25,10.37v13.25q0,6.62,3.25,10.22t9.17,3.6a13,13,0,0,0,6.48-1.49,9.93,9.93,0,0,0,4.07-4.31,14.87,14.87,0,0,0,1.4-6.74l.82,12.84a17.36,17.36,0,0,1-5.94,7.56,16.69,16.69,0,0,1-10.17,3A21.32,21.32,0,0,1,573.47,190.75Zm26.69-83.35h12v85.2h-12Z" transform="translate(44.55 0)"/><path class="cls-3" d="M623.84,131.78H636l18.69,52.85-6.62,13Zm53.84,0-25.89,75.06a17.79,17.79,0,0,1-3.7,6.59,12.81,12.81,0,0,1-5.62,3.48,27.31,27.31,0,0,1-8.2,1.06h-2.41V206.48h2.41a9.3,9.3,0,0,0,5.3-1.34,10.85,10.85,0,0,0,3.43-4.63l22.5-68.73Z" transform="translate(44.55 0)"/><path class="cls-3" d="M451.45,212.34h12V297.6h-12Zm5.22,37.86h29.06a11.15,11.15,0,0,0,6-1.65,10.82,10.82,0,0,0,4.07-4.65,17.58,17.58,0,0,0,0-13.89,10.93,10.93,0,0,0-4-4.66,11.15,11.15,0,0,0-6.06-1.64H456.67V212.34h28.59a26.74,26.74,0,0,1,13,3,21.34,21.34,0,0,1,8.67,8.64,28.51,28.51,0,0,1,0,25.84,21.56,21.56,0,0,1-8.7,8.65,26.61,26.61,0,0,1-12.92,3H456.67Zm23.2,8.73,11.9-2.7,21.79,41.37H499.38Z" transform="translate(44.55 0)"/><path class="cls-3" d="M536,295.37a20.51,20.51,0,0,1-8.59-9.05,31.93,31.93,0,0,1-3-14.33v-9.9a31.25,31.25,0,0,1,3-14.15,20.42,20.42,0,0,1,8.59-9A31.37,31.37,0,0,1,563,239a20.4,20.4,0,0,1,8.58,9,31.25,31.25,0,0,1,3,14.15v10.08a31.43,31.43,0,0,1-3,14.21,20.55,20.55,0,0,1-8.58,9,31,31,0,0,1-27.07,0Zm23.23-12.19c2.28-2.61,3.43-6.29,3.43-11V262.09q0-7.09-3.43-11t-9.7-3.86q-6.27,0-9.7,3.86t-3.42,11v10.08c0,4.72,1.14,8.4,3.42,11s5.52,3.93,9.7,3.93S556.89,285.8,559.18,283.18Z" transform="translate(44.55 0)"/><path class="cls-3" d="M601.34,295.37a20.51,20.51,0,0,1-8.59-9.05,31.93,31.93,0,0,1-3-14.33v-9.9a31.25,31.25,0,0,1,3-14.15,20.42,20.42,0,0,1,8.59-9,31.37,31.37,0,0,1,27.07,0,20.4,20.4,0,0,1,8.58,9,31.25,31.25,0,0,1,3,14.15v10.08a31.43,31.43,0,0,1-3,14.21,20.55,20.55,0,0,1-8.58,9,31,31,0,0,1-27.07,0Zm23.23-12.19c2.28-2.61,3.43-6.29,3.43-11V262.09q0-7.09-3.43-11t-9.7-3.86q-6.27,0-9.7,3.86t-3.42,11v10.08c0,4.72,1.14,8.4,3.42,11s5.52,3.93,9.7,3.93S622.28,285.8,624.57,283.18Z" transform="translate(44.55 0)"/><path class="cls-3" d="M656.94,236.78h11.95V297.6H656.94Zm36.33,24c0-4.29-1.06-7.62-3.16-10s-5.1-3.51-9-3.51-6.92,1-9,3.1-3.2,5-3.2,8.73l-1.23-11.72a21.71,21.71,0,0,1,7.36-8.49,17.8,17.8,0,0,1,10.05-3A19.73,19.73,0,0,1,696,238.8a18.15,18.15,0,0,1,6.89,8.47,34.15,34.15,0,0,1,2.37,13.41V297.6h-12Zm36.33,0c0-4.29-1.12-7.62-3.34-10s-5.35-3.51-9.38-3.51q-5.57,0-8.61,3.39t-3,9.61l-2.4-11.72a23.31,23.31,0,0,1,7.59-9.34,17.67,17.67,0,0,1,10.4-3.31A20.86,20.86,0,0,1,732,238.8a18.22,18.22,0,0,1,7.09,8.47,33.4,33.4,0,0,1,2.43,13.41V297.6H729.6Z" transform="translate(44.55 0)"/><path class="cls-3" d="M234.21,20a46.29,46.29,0,0,1,46.24,46.24V233.76A46.29,46.29,0,0,1,234.21,280H66.69a46.29,46.29,0,0,1-46.24-46.24V66.24A46.29,46.29,0,0,1,66.69,20H234.21m0-20H66.69A66.24,66.24,0,0,0,.45,66.24V233.76A66.24,66.24,0,0,0,66.69,300H234.21a66.23,66.23,0,0,0,66.24-66.24V66.24A66.23,66.23,0,0,0,234.21,0Z" transform="translate(44.55 0)"/><rect class="cls-3" x="84.5" y="212.75" width="102.06" height="47.25" rx="23.62"/><circle class="cls-4" cx="108.44" cy="235.96" r="16.54"/><path class="cls-4" d="M123.1,184l26.55-17.86a.44.44,0,0,0,.12-.15l36.6-99.5a.31.31,0,0,0-.18-.4L151.53,53.29a.31.31,0,0,0-.4.18l-37,99.35a.31.31,0,0,0,0,.19l8.52,30.84A.32.32,0,0,0,123.1,184Z" transform="translate(44.55 0)"/></g></g></g></svg>